<?xml version="1.0" encoding="UTF-8"?>
<!-- Created with Inkscape (http://www.inkscape.org/) -->
<svg width="280" height="48.9" version="1.1" viewBox="0 0 74.1 12.9" xmlns="http://www.w3.org/2000/svg" xmlns:cc="http://creativecommons.org/ns#" xmlns:dc="http://purl.org/dc/elements/1.1/" xmlns:rdf="http://www.w3.org/1999/02/22-rdf-syntax-ns#">
 <metadata>
  <rdf:RDF>
   <cc:Work rdf:about="">
    <dc:format>image/svg+xml</dc:format>
    <dc:type rdf:resource="http://purl.org/dc/dcmitype/StillImage"/>
    <dc:title/>
   </cc:Work>
  </rdf:RDF>
 </metadata>
 <text x="-2.3067219" y="5.0944529" fill="#000000" font-family="'High Tower Text'" font-size="12px" letter-spacing="0px" stroke-width=".265" word-spacing="0px" style="font-feature-settings:normal;font-variant-caps:normal;font-variant-ligatures:normal;font-variant-numeric:normal;line-height:1.25" xml:space="preserve"><tspan x="-2.3067219" y="5.0944529" dx="0 0 0 0 0 0 0 0.059999999" fill="#000000" font-family="'High Tower Text'" font-size="12px" style="font-feature-settings:normal;font-variant-caps:normal;font-variant-ligatures:normal;font-variant-numeric:normal"/></text>
 <g transform="translate(-2.62 -3.75)" letter-spacing="0px" stroke-width=".265" word-spacing="0px">
  <g font-family="sans-serif" font-size="11.3px">
   <text x="21.135111" y="32.085369" style="line-height:1.25" xml:space="preserve"><tspan x="21.135111" y="42.384659" fill="#000000" stroke-width=".265"/></text>
   <text x="2.3132322" y="-1.8781319" style="line-height:1.25" xml:space="preserve"><tspan x="2.3132322" y="8.4211569" fill="#000000" stroke-width=".265"/></text>
   <text x="6.2455297" y="5.0632167" letter-spacing="0px" stroke-width=".07" word-spacing="0px" style="line-height:1.25" xml:space="preserve"><tspan x="6.2455297" y="15.362505" fill="#000000" stroke-width=".07"/></text>
  </g>
  <text x="0.74345225" y="8.1116638" font-family="Martel" font-size="7.41px" font-weight="300" letter-spacing="0px" stroke-width=".07" word-spacing="0px" style="font-feature-settings:normal;font-variant-caps:normal;font-variant-ligatures:normal;font-variant-numeric:normal;line-height:1.25" xml:space="preserve"><tspan x="0.74345225" y="8.1116638" fill="#000000" font-family="Martel" font-size="7.41px" font-weight="300" style="font-feature-settings:normal;font-variant-caps:normal;font-variant-ligatures:normal;font-variant-numeric:normal"><tspan fill="#000000" font-family="Martel" font-size="7.76px" font-weight="300" style="font-feature-settings:normal;font-variant-caps:normal;font-variant-ligatures:normal;font-variant-numeric:normal"/></tspan></text>
  <text x="66.466995" y="5.3746772" font-family="sans-serif" font-size="11.3px" letter-spacing="0px" stroke-width=".07" word-spacing="0px" style="line-height:1.25" xml:space="preserve"><tspan x="66.466995" y="15.673965" stroke-width=".07"/></text>
 </g>
 <g transform="matrix(.788 0 0 .784 .116 .0669)" fill="#fff">
  <path d="m-0.0691 10.9h93.8" stroke="#f65a5a" stroke-linecap="round" stroke-width=".155"/>
  <g transform="scale(1.04 .966)" stroke-width=".254" style="font-feature-settings:normal;font-variant-caps:normal;font-variant-ligatures:normal;font-variant-numeric:normal" aria-label="Pavlos PapadopoulosFine Art Photography">
   <path d="m0.231 7.62v-0.151q0.382-0.111 0.498-0.166 0.121-0.0553 0.141-0.176 0.0754-0.287 0.0754-2.33 0-0.317-0.00503-0.689 0-0.372-0.00503-0.573-0.00503-0.206-0.0251-0.634-0.0101-0.292-0.0352-0.724-0.0251-0.438-0.0503-0.553-0.0201-0.121-0.0654-0.196-0.0704-0.106-0.211-0.146-0.141-0.0402-0.407-0.0704-0.0101-0.106 0-0.201 0.402 0.0302 0.946 0.0302 0.156 0 0.548-0.0201l0.317-0.0251q0.116-0.0101 0.322-0.0101 0.709 0 1.24 0.196 0.533 0.196 0.89 0.523 0.362 0.322 0.533 0.694 0.176 0.367 0.176 0.719 0 0.543-0.332 1.02-0.332 0.478-0.981 0.775t-1.53 0.297q-0.337 0-0.649-0.0503 0.00503 0.392 0.0101 0.92 0.00503 0.523 0.0101 0.634 0.0151 0.302 0.0754 0.433 0.0604 0.131 0.246 0.186 0.191 0.0553 0.634 0.0805l-0.0101 0.226q-0.191-0.0352-0.513-0.0503-0.392-0.0201-0.538-0.0201-0.553 0-0.865 0.0503l-0.257 0.0302q-0.101 0-0.186-0.0302zm1.44-6.28q0 0.0453-0.0151 0.528-0.0101 0.478-0.0201 0.79-0.00503 0.307-0.0151 0.674-0.0101 0.362-0.0101 0.417 0 0.488 0.0101 1.07 0.438 0.116 0.815 0.116 0.417 0 0.84-0.161 0.428-0.166 0.719-0.558 0.292-0.397 0.292-1.04 0-0.498-0.216-0.936-0.211-0.443-0.654-0.714-0.443-0.277-1.06-0.277-0.317 0-0.689 0.0905z" fill="#999"/>
   <path d="m6.66 4.58-0.619 0.277q-0.0402-0.161-0.0402-0.236 0-0.257 0.312-0.473 0.317-0.221 0.709-0.357 0.397-0.136 0.553-0.136 0.136 0 0.337 0.121 0.201 0.121 0.322 0.241 0.106 0.101 0.161 0.201 0.0604 0.0956 0.106 0.307 0.0453 0.211 0.0453 0.538 0 0.0956-0.0252 0.674l-0.0201 0.377q-0.0201 0.272-0.0201 0.433 0 0.206 0.0553 0.443 0.0503 0.241 0.226 0.241 0.196 0 0.523-0.146v0.206l-0.739 0.297q-0.221 0.0754-0.251 0.0754-0.116 0-0.231-0.151-0.111-0.156-0.181-0.367-0.931 0.518-1.43 0.518-0.307 0-0.463-0.176-0.156-0.181-0.156-0.538 0-0.342 0.0805-0.508 0.0855-0.166 0.272-0.262 0.377-0.191 0.8-0.282 0.423-0.0956 0.885-0.161l0.0252-0.619v-0.166q0-0.428-0.246-0.674-0.241-0.251-0.568-0.251-0.156 0-0.317 0.0905-0.156 0.0855-0.156 0.246 0 0.0805 0.0503 0.216zm1.19 2.38q-0.0151-0.166 0.0302-0.946-0.664-0.0453-1.07 0.161-0.402 0.206-0.402 0.518 0 0.226 0.121 0.428 0.126 0.201 0.342 0.201 0.241 0 0.976-0.362z" style="font-feature-settings:normal;font-variant-caps:normal;font-variant-ligatures:normal;font-variant-numeric:normal"/>
   <path d="m11.1 7.78h-0.156q-0.136-0.573-0.423-1.37-0.282-0.795-0.573-1.48-0.292-0.694-0.352-0.744-0.0604-0.0503-0.176-0.106-0.111-0.0604-0.186-0.101v-0.121q0.166 0.0101 0.533 0.0101 0.553 0 1.29-0.0402l-0.0201 0.171q-0.357 0.0402-0.453 0.0805-0.0905 0.0402-0.0905 0.126 0 0.236 0.302 1.15 0.302 0.91 0.478 1.3 0.337-0.538 0.629-1.26 0.292-0.724 0.292-1.02 0-0.231-0.146-0.302-0.146-0.0704-0.392-0.0805l0.0201-0.161 0.352-0.0101q0.272 0.0302 0.473 0.0302 0.317 0 0.578-0.0604v0.151q-0.231 0.0956-0.397 0.342-0.161 0.246-0.231 0.443-0.0151 0.0252-0.0855 0.196-0.0704 0.166-0.101 0.216l-0.905 2z" style="font-feature-settings:normal;font-variant-caps:normal;font-variant-ligatures:normal;font-variant-numeric:normal"/>
   <path d="m13.2 7.57v-0.156q0.377-0.0654 0.533-0.226 0.156-0.161 0.196-0.493 0.0252-0.171 0.0553-0.785 0.0302-0.619 0.0553-1.41 0.0252-0.795 0.0252-1.43 0-1.33-0.136-1.51-0.0855-0.126-0.342-0.126-0.0604 0-0.0956 0.00503t-0.0654 0.0101-0.0654 0.0101v-0.156q0.961-0.402 1.35-0.679h0.151q-0.156 0.594-0.196 2.15l-0.0402 2.42q0 1.7 0.0754 1.93 0.0453 0.131 0.302 0.201 0.257 0.0654 0.458 0.0855v0.186q-0.986-0.0704-1.33-0.0704-0.458 0-0.936 0.0503z" style="font-feature-settings:normal;font-variant-caps:normal;font-variant-ligatures:normal;font-variant-numeric:normal"/>
   <path d="m16 5.66q0-0.443 0.161-0.8 0.166-0.362 0.453-0.624 0.287-0.262 0.669-0.402 0.382-0.141 0.82-0.141 0.397 0 0.749 0.146 0.357 0.146 0.624 0.402t0.417 0.609q0.156 0.347 0.156 0.749 0 0.523-0.251 0.981-0.246 0.458-0.704 0.739-0.453 0.277-1.05 0.277-0.448 0-0.926-0.196-0.473-0.196-0.8-0.629-0.322-0.438-0.322-1.11zm0.659-0.277q0 0.468 0.186 0.931 0.186 0.463 0.518 0.76 0.337 0.297 0.739 0.297 0.352 0 0.639-0.191 0.287-0.196 0.458-0.553t0.171-0.81q0-0.458-0.201-0.89-0.196-0.438-0.548-0.709-0.347-0.277-0.77-0.277-0.342 0-0.614 0.186-0.272 0.186-0.428 0.518-0.151 0.332-0.151 0.739z" style="font-feature-settings:normal;font-variant-caps:normal;font-variant-ligatures:normal;font-variant-numeric:normal"/>
   <path d="m20.7 6.42 0.176 0.0101q0 0.0956 0.161 0.312 0.166 0.216 0.443 0.392 0.277 0.171 0.604 0.171 0.236 0 0.473-0.101 0.236-0.101 0.236-0.438 0-0.352-0.246-0.568-0.246-0.211-0.558-0.367l-0.377-0.176q-0.332-0.171-0.528-0.362-0.196-0.186-0.196-0.483 0-0.231 0.166-0.483 0.166-0.257 0.478-0.423 0.317-0.166 0.714-0.166 0.241 0 0.805 0.0754l0.166 0.855h-0.176q-0.0453-0.176-0.211-0.332-0.161-0.161-0.382-0.272-0.216-0.111-0.372-0.111-0.267 0-0.433 0.166-0.166 0.166-0.166 0.423 0 0.206 0.121 0.327 0.121 0.126 0.458 0.292l0.307 0.146q0.417 0.196 0.714 0.458 0.297 0.267 0.297 0.734 0 0.176-0.0754 0.377-0.0704 0.196-0.216 0.282-0.417 0.267-0.689 0.347-0.272 0.0754-0.553 0.0754-0.101 0-0.287-0.0252t-0.262-0.0402q-0.0754-0.0151-0.262-0.0704-0.186-0.0553-0.241-0.0704 0.0402-0.201 0.0402-0.287 0-0.126-0.0453-0.342-0.0402-0.221-0.0805-0.327z" style="font-feature-settings:normal;font-variant-caps:normal;font-variant-ligatures:normal;font-variant-numeric:normal"/>
   <path d="m26.5 7.62v-0.151q0.382-0.111 0.498-0.166 0.121-0.0553 0.141-0.176 0.0754-0.287 0.0754-2.33 0-0.317-5e-3 -0.689 0-0.372-5e-3 -0.573-5e-3 -0.206-0.0252-0.634-0.0101-0.292-0.0352-0.724-0.0252-0.438-0.0503-0.553-0.0201-0.121-0.0654-0.196-0.0704-0.106-0.211-0.146-0.141-0.0402-0.407-0.0704-0.0101-0.106 0-0.201 0.402 0.0302 0.946 0.0302 0.156 0 0.548-0.0201l0.317-0.0251q0.116-0.0101 0.322-0.0101 0.709 0 1.24 0.196 0.533 0.196 0.89 0.523 0.362 0.322 0.533 0.694 0.176 0.367 0.176 0.719 0 0.543-0.332 1.02-0.332 0.478-0.981 0.775t-1.53 0.297q-0.337 0-0.649-0.0503 5e-3 0.392 0.0101 0.92 5e-3 0.523 0.0101 0.634 0.0151 0.302 0.0754 0.433 0.0604 0.131 0.246 0.186 0.191 0.0553 0.634 0.0805l-0.0101 0.226q-0.191-0.0352-0.513-0.0503-0.392-0.0201-0.538-0.0201-0.553 0-0.865 0.0503l-0.257 0.0302q-0.101 0-0.186-0.0302zm1.44-6.28q0 0.0453-0.0151 0.528-0.0101 0.478-0.0201 0.79-5e-3 0.307-0.0151 0.674-0.0101 0.362-0.0101 0.417 0 0.488 0.0101 1.07 0.438 0.116 0.815 0.116 0.417 0 0.84-0.161 0.428-0.166 0.719-0.558 0.292-0.397 0.292-1.04 0-0.498-0.216-0.936-0.211-0.443-0.654-0.714-0.443-0.277-1.06-0.277-0.317 0-0.689 0.0905z" fill="#999"/>
   <path d="m33 4.58-0.619 0.277q-0.0402-0.161-0.0402-0.236 0-0.257 0.312-0.473 0.317-0.221 0.709-0.357 0.397-0.136 0.553-0.136 0.136 0 0.337 0.121t0.322 0.241q0.106 0.101 0.161 0.201 0.0604 0.0956 0.106 0.307 0.0453 0.211 0.0453 0.538 0 0.0956-0.0252 0.674l-0.0201 0.377q-0.0201 0.272-0.0201 0.433 0 0.206 0.0553 0.443 0.0503 0.241 0.226 0.241 0.196 0 0.523-0.146v0.206l-0.739 0.297q-0.221 0.0754-0.251 0.0754-0.116 0-0.231-0.151-0.111-0.156-0.181-0.367-0.931 0.518-1.43 0.518-0.307 0-0.463-0.176-0.156-0.181-0.156-0.538 0-0.342 0.0805-0.508 0.0855-0.166 0.272-0.262 0.377-0.191 0.8-0.282 0.423-0.0956 0.885-0.161l0.0252-0.619v-0.166q0-0.428-0.246-0.674-0.241-0.251-0.568-0.251-0.156 0-0.317 0.0905-0.156 0.0855-0.156 0.246 0 0.0805 0.0503 0.216zm1.19 2.38q-0.0151-0.166 0.0302-0.946-0.664-0.0453-1.07 0.161-0.402 0.206-0.402 0.518 0 0.226 0.121 0.428 0.126 0.201 0.342 0.201 0.241 0 0.976-0.362z" style="font-feature-settings:normal;font-variant-caps:normal;font-variant-ligatures:normal;font-variant-numeric:normal"/>
   <path d="m35.8 4.4-0.0402-0.141q0.241-0.146 0.337-0.186 0.0704 0 0.438-0.211 0.372-0.211 0.513-0.387 0.0402 0.121 0.111 0.709l0.433-0.171q0.674-0.282 1.02-0.282 0.377 0 0.749 0.246 0.377 0.246 0.609 0.664 0.236 0.417 0.236 0.895 0 0.609-0.277 1.02-0.277 0.402-0.684 0.624-0.402 0.216-0.78 0.302-0.372 0.0855-0.563 0.0855-0.312 0-0.744-0.146 0 0.0905-0.0101 0.568-0.0101 0.478-0.0101 0.558v0.915q0 0.322 0.0252 0.458 0.0252 0.136 0.0905 0.171 0.0704 0.0402 0.236 0.0503l0.367 0.0201q0.126 0 0.126 0.0956 0 0.0604-0.0402 0.0754-0.0352 0.0151-0.176 0.0151-0.624 0-0.78 5e-3 -0.156 0.0101-1.03 0.0654 0-0.0905-0.0101-0.151 0.257-0.0201 0.342-0.0754 0.0855-0.0503 0.136-0.171 0.0805-0.221 0.106-0.89 0.0252-0.664 0.0252-1.39l0.0101-0.629q0-0.724-0.0101-1.49-0.0101-0.775-0.0402-0.946-0.0252-0.101-0.0805-0.191-0.0503-0.0956-0.126-0.151-0.0704-0.0604-0.146-0.0604-0.0553 0-0.367 0.131zm1.35-0.0101-0.0101 2.55 0.463 0.156q0.528 0.176 0.734 0.176 0.246 0 0.548-0.121 0.302-0.126 0.528-0.417 0.231-0.292 0.231-0.76 0-0.513-0.236-0.946-0.236-0.438-0.589-0.684-0.352-0.246-0.669-0.246-0.161 0-1 0.297z" style="font-feature-settings:normal;font-variant-caps:normal;font-variant-ligatures:normal;font-variant-numeric:normal"/>
   <path d="m41.8 4.58-0.619 0.277q-0.0402-0.161-0.0402-0.236 0-0.257 0.312-0.473 0.317-0.221 0.709-0.357 0.397-0.136 0.553-0.136 0.136 0 0.337 0.121t0.322 0.241q0.106 0.101 0.161 0.201 0.0604 0.0956 0.106 0.307 0.0453 0.211 0.0453 0.538 0 0.0956-0.0252 0.674l-0.0201 0.377q-0.0201 0.272-0.0201 0.433 0 0.206 0.0553 0.443 0.0503 0.241 0.226 0.241 0.196 0 0.523-0.146v0.206l-0.739 0.297q-0.221 0.0754-0.251 0.0754-0.116 0-0.231-0.151-0.111-0.156-0.181-0.367-0.931 0.518-1.43 0.518-0.307 0-0.463-0.176-0.156-0.181-0.156-0.538 0-0.342 0.0805-0.508 0.0855-0.166 0.272-0.262 0.377-0.191 0.8-0.282 0.423-0.0956 0.885-0.161l0.0252-0.619v-0.166q0-0.428-0.246-0.674-0.241-0.251-0.568-0.251-0.156 0-0.317 0.0905-0.156 0.0855-0.156 0.246 0 0.0805 0.0503 0.216zm1.19 2.38q-0.0151-0.166 0.0302-0.946-0.664-0.0453-1.07 0.161-0.402 0.206-0.402 0.518 0 0.226 0.121 0.428 0.126 0.201 0.342 0.201 0.241 0 0.976-0.362z" style="font-feature-settings:normal;font-variant-caps:normal;font-variant-ligatures:normal;font-variant-numeric:normal"/>
   <path d="m48 2.76v-0.704q-0.0352-0.337-0.0654-0.463-0.0252-0.131-0.0855-0.171-0.0553-0.0453-0.181-0.0453-0.136 0-0.337 0.0503l-0.0101-0.151q0.926-0.382 1.33-0.669l0.121 0.0503q-0.0553 0.241-0.0956 0.84-0.0402 0.599-0.0805 1.43l-0.0201 0.498-0.0402 2.03v0.488q0 0.719 0.0453 1.08 0.0503 0.357 0.141 0.357 0.0553 0 0.231-0.0503 0.181-0.0503 0.377-0.116v0.186q-1.18 0.412-1.28 0.412-0.0754 0-0.116-0.206-0.0402-0.201-0.0402-0.609-0.543 0.287-0.865 0.407t-0.679 0.121q-0.372 0-0.729-0.191-0.357-0.196-0.589-0.568-0.226-0.372-0.226-0.86 0-0.669 0.297-1.12 0.302-0.453 0.689-0.679 0.392-0.231 0.744-0.327 0.357-0.101 0.463-0.101 0.156 0 0.397 0.0402t0.573 0.126q0.0302-0.558 0.0302-1.09zm-0.106 3.49 0.0302-1.72q0-0.116-0.176-0.206-0.171-0.0956-0.382-0.146-0.206-0.0503-0.458-0.0855-0.251-0.0352-0.292-0.0352-0.322 0-0.614 0.171-0.287 0.166-0.463 0.458-0.171 0.292-0.171 0.649 0 0.553 0.201 0.956 0.201 0.402 0.543 0.614 0.347 0.211 0.76 0.211 0.292 0 0.528-0.101 0.241-0.106 0.493-0.262-5e-3 -0.0352-5e-3 -0.196 5e-3 -0.161 5e-3 -0.307z" style="font-feature-settings:normal;font-variant-caps:normal;font-variant-ligatures:normal;font-variant-numeric:normal"/>
   <path d="m49.7 5.66q0-0.443 0.161-0.8 0.166-0.362 0.453-0.624 0.287-0.262 0.669-0.402 0.382-0.141 0.82-0.141 0.397 0 0.749 0.146 0.357 0.146 0.624 0.402t0.417 0.609q0.156 0.347 0.156 0.749 0 0.523-0.251 0.981-0.246 0.458-0.704 0.739-0.453 0.277-1.05 0.277-0.448 0-0.926-0.196-0.473-0.196-0.8-0.629-0.322-0.438-0.322-1.11zm0.659-0.277q0 0.468 0.186 0.931 0.186 0.463 0.518 0.76 0.337 0.297 0.739 0.297 0.352 0 0.639-0.191 0.287-0.196 0.458-0.553 0.171-0.357 0.171-0.81 0-0.458-0.201-0.89-0.196-0.438-0.548-0.709-0.347-0.277-0.77-0.277-0.342 0-0.614 0.186t-0.428 0.518q-0.151 0.332-0.151 0.739z" style="font-feature-settings:normal;font-variant-caps:normal;font-variant-ligatures:normal;font-variant-numeric:normal"/>
   <path d="m54.3 4.4-0.0402-0.141q0.241-0.146 0.337-0.186 0.0704 0 0.438-0.211 0.372-0.211 0.513-0.387 0.0402 0.121 0.111 0.709l0.433-0.171q0.674-0.282 1.02-0.282 0.377 0 0.749 0.246 0.377 0.246 0.609 0.664 0.236 0.417 0.236 0.895 0 0.609-0.277 1.02-0.277 0.402-0.684 0.624-0.402 0.216-0.78 0.302-0.372 0.0855-0.563 0.0855-0.312 0-0.744-0.146 0 0.0905-0.0101 0.568-0.0101 0.478-0.0101 0.558v0.915q0 0.322 0.0252 0.458 0.0252 0.136 0.0905 0.171 0.0704 0.0402 0.236 0.0503l0.367 0.0201q0.126 0 0.126 0.0956 0 0.0604-0.0402 0.0754-0.0352 0.0151-0.176 0.0151-0.624 0-0.78 5e-3 -0.156 0.0101-1.03 0.0654 0-0.0905-0.0101-0.151 0.257-0.0201 0.342-0.0754 0.0855-0.0503 0.136-0.171 0.0805-0.221 0.106-0.89 0.0252-0.664 0.0252-1.39l0.0101-0.629q0-0.724-0.0101-1.49-0.0101-0.775-0.0402-0.946-0.0252-0.101-0.0805-0.191-0.0503-0.0956-0.126-0.151-0.0704-0.0604-0.146-0.0604-0.0553 0-0.367 0.131zm1.35-0.0101-0.0101 2.55 0.463 0.156q0.528 0.176 0.734 0.176 0.246 0 0.548-0.121 0.302-0.126 0.528-0.417 0.231-0.292 0.231-0.76 0-0.513-0.236-0.946-0.236-0.438-0.589-0.684-0.352-0.246-0.669-0.246-0.161 0-1 0.297z" style="font-feature-settings:normal;font-variant-caps:normal;font-variant-ligatures:normal;font-variant-numeric:normal"/>
   <path d="m59.5 5.66q0-0.443 0.161-0.8 0.166-0.362 0.453-0.624 0.287-0.262 0.669-0.402 0.382-0.141 0.82-0.141 0.397 0 0.749 0.146 0.357 0.146 0.624 0.402t0.417 0.609q0.156 0.347 0.156 0.749 0 0.523-0.251 0.981-0.246 0.458-0.704 0.739-0.453 0.277-1.05 0.277-0.448 0-0.926-0.196-0.473-0.196-0.8-0.629-0.322-0.438-0.322-1.11zm0.659-0.277q0 0.468 0.186 0.931 0.186 0.463 0.518 0.76 0.337 0.297 0.739 0.297 0.352 0 0.639-0.191 0.287-0.196 0.458-0.553 0.171-0.357 0.171-0.81 0-0.458-0.201-0.89-0.196-0.438-0.548-0.709-0.347-0.277-0.77-0.277-0.342 0-0.614 0.186t-0.428 0.518q-0.151 0.332-0.151 0.739z" style="font-feature-settings:normal;font-variant-caps:normal;font-variant-ligatures:normal;font-variant-numeric:normal"/>
   <path d="m64 4.5v-0.206l1.12-0.619 0.101-0.0402q0.0704 0 0.0704 0.0905l-0.0604 0.865q-0.0604 1.03-0.0604 1.27 0 0.568 0.151 0.946 0.151 0.372 0.704 0.372 0.176 0 0.362-0.0553 0.191-0.0604 0.438-0.176 0.251-0.121 0.392-0.191 0-0.377 0.0151-0.493l0.0302-1.03q0.0151-0.468-0.0302-0.659-0.0453-0.196-0.176-0.251-0.126-0.0553-0.423-0.0654l-0.0101-0.186 1.34-0.312q-0.0252 0.453-0.0553 0.865-0.0252 0.407-0.0503 0.875-0.0201 0.468-0.0201 0.694 0 0.734 0.0956 1.03 0.262-0.0101 0.563-0.121v0.226q-0.568 0.156-1.15 0.372-0.0855-0.282-0.136-0.714-1.23 0.629-1.71 0.629-0.322 0-0.644-0.307-0.322-0.307-0.292-1.19l0.0402-1.13q0.0101-0.302-0.0252-0.458-0.0302-0.161-0.191-0.161-0.0905 0-0.382 0.136z" style="font-feature-settings:normal;font-variant-caps:normal;font-variant-ligatures:normal;font-variant-numeric:normal"/>
   <path d="m68.8 7.57v-0.156q0.377-0.0654 0.533-0.226 0.156-0.161 0.196-0.493 0.0252-0.171 0.0553-0.785 0.0302-0.619 0.0553-1.41 0.0252-0.795 0.0252-1.43 0-1.33-0.136-1.51-0.0855-0.126-0.342-0.126-0.0604 0-0.0956 0.00503t-0.0654 0.0101-0.0654 0.0101v-0.156q0.961-0.402 1.35-0.679h0.151q-0.156 0.594-0.196 2.15l-0.0402 2.42q0 1.7 0.0754 1.93 0.0453 0.131 0.302 0.201 0.257 0.0654 0.458 0.0855v0.186q-0.986-0.0704-1.33-0.0704-0.458 0-0.936 0.0503z" style="font-feature-settings:normal;font-variant-caps:normal;font-variant-ligatures:normal;font-variant-numeric:normal"/>
   <path d="m71.5 5.66q0-0.443 0.161-0.8 0.166-0.362 0.453-0.624t0.669-0.402q0.382-0.141 0.82-0.141 0.397 0 0.749 0.146 0.357 0.146 0.624 0.402 0.267 0.257 0.417 0.609 0.156 0.347 0.156 0.749 0 0.523-0.251 0.981-0.246 0.458-0.704 0.739-0.453 0.277-1.05 0.277-0.448 0-0.926-0.196-0.473-0.196-0.8-0.629-0.322-0.438-0.322-1.11zm0.659-0.277q0 0.468 0.186 0.931 0.186 0.463 0.518 0.76 0.337 0.297 0.739 0.297 0.352 0 0.639-0.191 0.287-0.196 0.458-0.553t0.171-0.81q0-0.458-0.201-0.89-0.196-0.438-0.548-0.709-0.347-0.277-0.77-0.277-0.342 0-0.614 0.186-0.272 0.186-0.428 0.518-0.151 0.332-0.151 0.739z" style="font-feature-settings:normal;font-variant-caps:normal;font-variant-ligatures:normal;font-variant-numeric:normal"/>
   <path d="m76.2 6.42 0.176 0.0101q0 0.0956 0.161 0.312 0.166 0.216 0.443 0.392 0.277 0.171 0.604 0.171 0.236 0 0.473-0.101 0.236-0.101 0.236-0.438 0-0.352-0.246-0.568-0.246-0.211-0.558-0.367l-0.377-0.176q-0.332-0.171-0.528-0.362-0.196-0.186-0.196-0.483 0-0.231 0.166-0.483 0.166-0.257 0.478-0.423 0.317-0.166 0.714-0.166 0.241 0 0.805 0.0754l0.166 0.855h-0.176q-0.0453-0.176-0.211-0.332-0.161-0.161-0.382-0.272-0.216-0.111-0.372-0.111-0.267 0-0.433 0.166-0.166 0.166-0.166 0.423 0 0.206 0.121 0.327 0.121 0.126 0.458 0.292l0.307 0.146q0.417 0.196 0.714 0.458 0.297 0.267 0.297 0.734 0 0.176-0.0754 0.377-0.0704 0.196-0.216 0.282-0.417 0.267-0.689 0.347-0.272 0.0754-0.553 0.0754-0.101 0-0.287-0.0252t-0.262-0.0402q-0.0754-0.0151-0.262-0.0704-0.186-0.0553-0.241-0.0704 0.0402-0.201 0.0402-0.287 0-0.126-0.0453-0.342-0.0402-0.221-0.0805-0.327z" style="font-feature-settings:normal;font-variant-caps:normal;font-variant-ligatures:normal;font-variant-numeric:normal"/>
   <g fill="#fff">
    <path d="m52 12.6v-0.0694l0.298-0.0046q0.0416 0 0.421 0.0093 0.19 0.0046 0.308 0.0093 0.118 0.0046 0.136 0.0046 0.648 0 1.05-0.0324-0.0116 0.13-0.0139 0.303-0.0023 0.171 0 0.28h-0.0948q-0.0116-0.183-0.0578-0.268-0.0463-0.0856-0.222-0.132-0.176-0.0463-0.569-0.0463-0.398 0-0.525 0.0324-0.0185 0.252-0.0185 0.849v0.365q0.278 0.0231 0.525 0.0231 0.322 0 0.458-0.0231t0.167-0.0786 0.0301-0.192q0.0509 0 0.0902-0.0093 0.0093 0.153 0.0093 0.28 0 0.241-0.0093 0.483h-0.0948q0-0.234-0.0393-0.257-0.0509-0.037-0.252-0.0671-0.199-0.0324-0.467-0.0324-0.275 0-0.412 0.0139-0.0093 0.435-0.0093 0.782 0 0.222 0.0093 0.317 0.0116 0.0925 0.0555 0.15 0.0463 0.0578 0.134 0.0833 0.0879 0.0231 0.298 0.0509v0.0902q-0.298-0.0139-0.502-0.0139h-0.229q-0.185 0-0.426 0.0185l0.0046-0.0763q0.15-0.0254 0.204-0.0717 0.0555-0.0463 0.0717-0.132 0.0509-0.275 0.0509-1.27 0-0.132-0.0023-0.259 0-0.13-0.0046-0.347-0.0023-0.217-0.0162-0.389-0.0139-0.171-0.037-0.231-0.0278-0.0786-0.102-0.104-0.074-0.0278-0.22-0.044z" style="font-feature-settings:normal;font-variant-caps:normal;font-variant-ligatures:normal;font-variant-numeric:normal"/>
    <path d="m54.5 15.5 0.0093-0.0717q0.197-0.0185 0.222-0.0694 0.0116-0.0208 0.0208-0.164 0.0093-0.146 0.0139-0.345 0.0069-0.201 0.0069-0.227 0-0.328-0.0116-0.421-0.0093-0.0925-0.0393-0.127-0.0093-0.0116-0.116-0.0231-0.106-0.0116-0.106-0.0301 0-0.037 0.0416-0.0463 0.275-0.0856 0.539-0.303 0.0162 0 0.044 0.0093-0.0231 0.0948-0.0393 0.278-0.0162 0.183-0.0278 0.384-0.0093 0.201-0.0093 0.356 0 0.116 0.0069 0.333 0.0093 0.215 0.0301 0.291 0.0185 0.0416 0.0463 0.0532 0.0278 0.0116 0.111 0.0185 0.081 0.0023 0.162 0.0139l0.0278 0.0671zm0.349-2.77q0-0.0786 0.0532-0.13 0.0532-0.0509 0.127-0.0509 0.074 0 0.125 0.0532 0.0509 0.0532 0.0509 0.127 0 0.074-0.0509 0.127-0.0486 0.0532-0.125 0.0532-0.074 0-0.127-0.0532-0.0532-0.0532-0.0532-0.127z" style="font-feature-settings:normal;font-variant-caps:normal;font-variant-ligatures:normal;font-variant-numeric:normal"/>
    <path d="m55.5 15.4-0.0046-0.0671q0.125-0.0231 0.183-0.0486 0.0578-0.0254 0.0763-0.0578 0.0185-0.0324 0.0254-0.0879 0.0185-0.127 0.0254-0.312 0.0069-0.185 0.0069-0.375 0-0.264-0.0185-0.359-0.0162-0.0972-0.074-0.123-0.0555-0.0278-0.21-0.044 0-0.0301-0.0046-0.044 0.0995-0.0254 0.264-0.0972 0.167-0.074 0.176-0.0833 0.0879-0.0463 0.104-0.0463 0.0347 0 0.044 0.0671 0.0093 0.0671 0.0093 0.222 0.254-0.143 0.419-0.204 0.164-0.0624 0.315-0.0624 0.224 0 0.326 0.0995 0.104 0.0972 0.127 0.238 0.0254 0.139 0.0254 0.368v0.55q0 0.326 0.0301 0.356 0.0162 0.0162 0.118 0.0393 0.102 0.0231 0.118 0.0301l0.0046 0.0717q-0.173-0.0278-0.402-0.0278-0.194 0-0.465 0.0278v-0.0671q0.21-0.0416 0.261-0.132 0.0347-0.0763 0.0463-0.322 0.0139-0.247 0.0139-0.384 0-0.204-0.0185-0.333-0.0162-0.132-0.0948-0.224t-0.245-0.0925q-0.074 0-0.224 0.0301-0.15 0.0301-0.354 0.136l-0.0139 0.615q-0.0046 0.393 0.0093 0.52 0.0046 0.0555 0.0208 0.0833 0.0185 0.0278 0.0786 0.0509 0.0601 0.0208 0.204 0.037l-0.0046 0.0717q-0.0509-0.0046-0.146-0.0116-0.0948-0.0069-0.243-0.0116z" style="font-feature-settings:normal;font-variant-caps:normal;font-variant-ligatures:normal;font-variant-numeric:normal"/>
    <path d="m59.3 14.3-1.16 0.25q0.0116 0.217 0.0416 0.338 0.0324 0.118 0.125 0.241 0.178 0.234 0.43 0.234 0.104 0 0.222-0.0393t0.261-0.141l0.0416 0.0555q-0.402 0.289-0.715 0.289-0.331 0-0.516-0.25-0.185-0.25-0.185-0.574 0-0.331 0.141-0.548 0.141-0.22 0.317-0.319 0.176-0.0995 0.266-0.0995 0.104 0 0.215 0.0347 0.113 0.0324 0.22 0.127 0.109 0.0948 0.18 0.259 0.0208 0.0347 0.0393 0.0463 0.0185 0.0116 0.0671 0.0116zm-1.15 0.16 0.303-0.0648q0.0185-0.0093 0.139-0.037 0.123-0.0278 0.164-0.0347 0.12-0.0278 0.153-0.0393 0.0324-0.0116 0.0324-0.037 0-0.037-0.0555-0.125-0.0555-0.0902-0.16-0.164-0.102-0.074-0.241-0.074-0.173 0-0.247 0.183-0.0717 0.183-0.0879 0.393z" style="font-feature-settings:normal;font-variant-caps:normal;font-variant-ligatures:normal;font-variant-numeric:normal"/>
   </g>
   <path d="m62.6 15.5v-0.0763q0.106-0.0185 0.169-0.0486 0.0648-0.0301 0.0648-0.102 0-0.0671-0.0416-0.194-0.0416-0.127-0.0624-0.176l-0.171-0.465q-0.134-0.0185-0.437-0.0185h-0.183q-0.275-0.0093-0.483 0.0278l-0.171 0.428q-0.113 0.268-0.113 0.335 0 0.081 0.0717 0.136 0.074 0.0532 0.298 0.0856v0.0763q-0.271-0.0324-0.46-0.0324-0.194 0-0.421 0.0185v-0.0671q0.139-0.0347 0.213-0.109 0.0555-0.0486 0.146-0.229 0.0925-0.183 0.185-0.396 0.0948-0.215 0.136-0.335l0.37-0.886q0.0694-0.16 0.141-0.333 0.074-0.176 0.139-0.352 0.0648-0.176 0.0948-0.282 0-0.0301 0.0139-0.044l0.0763-0.0046q0.0717 0.257 0.157 0.493l0.486 1.3q0.187 0.488 0.282 0.722 0.0972 0.231 0.169 0.331 0.0601 0.0856 0.247 0.104v0.081q-0.19-0.0185-0.365-0.0185-0.139 0-0.259 0.0069-0.118 0.0069-0.187 0.0116-0.0694 0.0069-0.104 0.0093zm-0.733-2.08-0.261 0.673q-0.0532 0.143-0.0717 0.18 0.176 0.0278 0.405 0.0278l0.213-0.0046q0.192 0 0.345-0.0093-0.081-0.236-0.104-0.28l-0.167-0.426q-0.0278-0.0694-0.106-0.252-0.0763-0.183-0.111-0.25-0.044 0.0972-0.0763 0.178-0.0301 0.0786-0.0648 0.162z" style="font-feature-settings:normal;font-variant-caps:normal;font-variant-ligatures:normal;font-variant-numeric:normal"/>
   <path d="m63.7 15.5 0.0046-0.0671q0.116-0.0231 0.16-0.0463 0.044-0.0231 0.0763-0.109 0.0324-0.0856 0.0416-0.257 0.0116-0.171 0.0116-0.525 0-0.28-0.0301-0.372-0.0301-0.0925-0.15-0.0925-0.0717 0-0.146 0.0185l0.0093-0.074 0.597-0.347q0.0093 0.143 0.0093 0.393l0.247-0.141q0.0185-0.0116 0.0324-0.0208 0.0254-0.0139 0.0578-0.0324 0.0324-0.0208 0.111-0.0671 0.0786-0.0486 0.125-0.0786l0.0185 0.0093q0.0139 0.0139 0.0324 0.0231 0.0694 0.0324 0.109 0.074 0.0393 0.0416 0.0393 0.12 0 0.0902-0.074 0.148-0.074 0.0578-0.178 0.0694 0-0.0786-0.037-0.12-0.037-0.0416-0.104-0.0416-0.0694 0-0.164 0.0509-0.0948 0.0486-0.143 0.0925-0.0578 0.0509-0.0694 0.0856-0.0093 0.0324-0.0116 0.164-0.0139 0.391-0.0139 0.414 0 0.451 0.0463 0.557 0.0208 0.037 0.0463 0.0463 0.0254 0.0069 0.0879 0.0069l0.0601-0.0046 0.275-0.0046-0.0046 0.0948q-0.0116 0-0.146 0.0046-0.134 0.0046-0.18 0.0046z" style="font-feature-settings:normal;font-variant-caps:normal;font-variant-ligatures:normal;font-variant-numeric:normal"/>
   <path d="m65.5 14.8 0.0116-0.9q-0.106-0.0139-0.247-0.0139 0.0046-0.0185 0.0046-0.0578 0.201-0.123 0.315-0.234 0.113-0.111 0.268-0.315l-0.0231 0.416q0.199 0.0185 0.435 0.0185 0.113 0 0.247-0.0046l-0.0046 0.143q-0.12 0.0139-0.247 0.0139-0.0116 0-0.0902-0.0023-0.0786-0.0046-0.245-0.0116-0.044 0-0.0671 0.0093-0.0208 0.0069-0.0301 0.0301-0.0069 0.0231-0.0116 0.0879-0.0023 0.0648-0.0046 0.136l-0.0116 0.722q-0.0046 0.208 0.0463 0.345 0.0532 0.134 0.252 0.134 0.0763 0 0.187-0.0324 0.113-0.0347 0.259-0.102 0.0046 0.0185 0.0046 0.0278 0.0023 0.0093 0.0046 0.0208-0.081 0.0879-0.298 0.173-0.215 0.0856-0.389 0.0856-0.15 0-0.259-0.102-0.106-0.104-0.106-0.356z" style="font-feature-settings:normal;font-variant-caps:normal;font-variant-ligatures:normal;font-variant-numeric:normal"/>
   <path d="m67.9 15.5v-0.0694q0.176-0.0509 0.229-0.0763 0.0555-0.0254 0.0648-0.081 0.0347-0.132 0.0347-1.07 0-0.146-0.0023-0.317 0-0.171-0.0023-0.264-0.0023-0.0948-0.0116-0.291-0.0046-0.134-0.0162-0.333-0.0116-0.201-0.0231-0.254-0.0093-0.0555-0.0301-0.0902-0.0324-0.0486-0.0972-0.0671-0.0648-0.0185-0.187-0.0324-0.0046-0.0486 0-0.0925 0.185 0.0139 0.435 0.0139 0.0717 0 0.252-0.0093l0.146-0.0116q0.0532-0.0046 0.148-0.0046 0.326 0 0.571 0.0902 0.245 0.0902 0.409 0.241 0.167 0.148 0.245 0.319 0.081 0.169 0.081 0.331 0 0.25-0.153 0.47-0.153 0.22-0.451 0.356t-0.703 0.136q-0.155 0-0.298-0.0231 0.0023 0.18 0.0046 0.423 0.0023 0.241 0.0046 0.291 0.0069 0.139 0.0347 0.199 0.0278 0.0601 0.113 0.0856 0.0879 0.0254 0.291 0.037l-0.0046 0.104q-0.0879-0.0162-0.236-0.0231-0.18-0.0093-0.247-0.0093-0.254 0-0.398 0.0231l-0.118 0.0139q-0.0463 0-0.0856-0.0139zm0.664-2.89q0 0.0208-0.0069 0.243-0.0046 0.22-0.0093 0.363-0.0023 0.141-0.0069 0.31-0.0046 0.167-0.0046 0.192 0 0.224 0.0046 0.493 0.201 0.0532 0.375 0.0532 0.192 0 0.386-0.074 0.197-0.0763 0.331-0.257 0.134-0.183 0.134-0.479 0-0.229-0.0995-0.43-0.0972-0.204-0.301-0.328-0.204-0.127-0.486-0.127-0.146 0-0.317 0.0416z" style="font-feature-settings:normal;font-variant-caps:normal;font-variant-ligatures:normal;font-variant-numeric:normal"/>
   <path d="m70.3 12.7v-0.0879q0.0509-0.0254 0.0671-0.0347l0.449-0.217 0.0763-0.0416 0.0763 0.037q-0.044 0.208-0.0624 0.481-0.0185 0.271-0.0278 0.689l-0.0139 0.47q0.273-0.118 0.442-0.173 0.171-0.0555 0.328-0.0555 0.222 0 0.324 0.136 0.102 0.134 0.125 0.331 0.0254 0.194 0.0254 0.513 0 0.0624-0.0023 0.116 0 0.0532-0.0023 0.15-0.0023 0.0948-0.0069 0.176-0.0023 0.0786-0.0023 0.0902 0 0.0995 0.0486 0.132 0.0486 0.0324 0.268 0.0324l-0.0046 0.0717h-0.15q-0.0347 0-0.287 0.0023-0.25 0.0023-0.257 0.0023-0.0069 0-0.102 0.0231-0.0231 0-0.0231-0.0324 0-0.0231 0.037-0.0324 0.0879-0.0208 0.13-0.074 0.044-0.0532 0.0578-0.18 0.0162-0.127 0.0162-0.419 0-0.46-0.074-0.657-0.074-0.197-0.338-0.197-0.136 0-0.301 0.0509t-0.243 0.0925q0 0.0648-0.0093 0.217l-0.0208 0.557q0 0.0532-0.0023 0.0972 0 0.044-0.0023 0.0972 0 0.224 0.0301 0.289 0.0116 0.0393 0.0555 0.0555 0.044 0.0139 0.234 0.0301v0.081q-0.0763-0.0093-0.324-0.0093-0.257 0-0.553 0.0231l0.0046-0.0763q0.148-0.0301 0.194-0.0578 0.0486-0.0301 0.0648-0.111 0.0185-0.081 0.0254-0.303 0.0069-0.363 0.0185-0.622l0.0093-0.648q0.0046-0.0995 0.0046-0.442 0-0.312-0.0278-0.46-0.0254-0.15-0.13-0.15-0.0162 0-0.146 0.037z" style="font-feature-settings:normal;font-variant-caps:normal;font-variant-ligatures:normal;font-variant-numeric:normal"/>
   <path d="m72.7 14.6q0-0.204 0.074-0.368 0.0763-0.167 0.208-0.287 0.132-0.12 0.308-0.185 0.176-0.0648 0.377-0.0648 0.183 0 0.345 0.0671 0.164 0.0671 0.287 0.185 0.123 0.118 0.192 0.28 0.0717 0.16 0.0717 0.345 0 0.241-0.116 0.451-0.113 0.21-0.324 0.34-0.208 0.127-0.481 0.127-0.206 0-0.426-0.0902-0.217-0.0902-0.368-0.289-0.148-0.201-0.148-0.511zm0.303-0.127q0 0.215 0.0856 0.428 0.0856 0.213 0.238 0.349 0.155 0.136 0.34 0.136 0.162 0 0.294-0.0879 0.132-0.0902 0.21-0.254 0.0786-0.164 0.0786-0.372 0-0.21-0.0925-0.409-0.0902-0.201-0.252-0.326-0.16-0.127-0.354-0.127-0.157 0-0.282 0.0856t-0.197 0.238q-0.0694 0.153-0.0694 0.34z" style="font-feature-settings:normal;font-variant-caps:normal;font-variant-ligatures:normal;font-variant-numeric:normal"/>
   <path d="m75 14.8 0.0116-0.9q-0.106-0.0139-0.247-0.0139 0.0046-0.0185 0.0046-0.0578 0.201-0.123 0.315-0.234t0.268-0.315l-0.0231 0.416q0.199 0.0185 0.435 0.0185 0.113 0 0.247-0.0046l-0.0046 0.143q-0.12 0.0139-0.247 0.0139-0.0116 0-0.0902-0.0023-0.0786-0.0046-0.245-0.0116-0.044 0-0.0671 0.0093-0.0208 0.0069-0.0301 0.0301-0.0069 0.0231-0.0116 0.0879-0.0023 0.0648-0.0046 0.136l-0.0116 0.722q-0.0046 0.208 0.0463 0.345 0.0532 0.134 0.252 0.134 0.0763 0 0.187-0.0324 0.113-0.0347 0.259-0.102 0.0046 0.0185 0.0046 0.0278 0.0023 0.0093 0.0046 0.0208-0.081 0.0879-0.298 0.173-0.215 0.0856-0.389 0.0856-0.15 0-0.259-0.102-0.106-0.104-0.106-0.356z" style="font-feature-settings:normal;font-variant-caps:normal;font-variant-ligatures:normal;font-variant-numeric:normal"/>
   <path d="m76.3 14.6q0-0.204 0.074-0.368 0.0763-0.167 0.208-0.287 0.132-0.12 0.308-0.185 0.176-0.0648 0.377-0.0648 0.183 0 0.345 0.0671 0.164 0.0671 0.287 0.185 0.123 0.118 0.192 0.28 0.0717 0.16 0.0717 0.345 0 0.241-0.116 0.451-0.113 0.21-0.324 0.34-0.208 0.127-0.481 0.127-0.206 0-0.426-0.0902-0.217-0.0902-0.368-0.289-0.148-0.201-0.148-0.511zm0.303-0.127q0 0.215 0.0856 0.428 0.0856 0.213 0.238 0.349 0.155 0.136 0.34 0.136 0.162 0 0.294-0.0879 0.132-0.0902 0.21-0.254 0.0786-0.164 0.0786-0.372 0-0.21-0.0925-0.409-0.0902-0.201-0.252-0.326-0.16-0.127-0.354-0.127-0.157 0-0.282 0.0856t-0.197 0.238q-0.0694 0.153-0.0694 0.34z" style="font-feature-settings:normal;font-variant-caps:normal;font-variant-ligatures:normal;font-variant-numeric:normal"/>
   <path d="m79.1 15.2q-0.132-0.0324-0.268-0.0972-0.134-0.0648-0.243-0.208-0.109-0.146-0.109-0.391 0-0.222 0.118-0.407 0.12-0.187 0.31-0.291 0.192-0.106 0.391-0.106 0.123 0 0.229 0.0347 0.106 0.0324 0.197 0.102 0.167-0.0324 0.352-0.0324 0.123 0 0.167 0.0093-0.0069 0.125-0.0624 0.25-0.157-0.0648-0.331-0.0648 0.0301 0.0416 0.0601 0.113 0.0301 0.0694 0.0486 0.15 0.0185 0.081 0.0185 0.157 0 0.213-0.0948 0.361t-0.236 0.238q-0.139 0.0879-0.356 0.192-0.407 0.18-0.407 0.261 0 0.141 0.34 0.141 0.282 0 0.439 0.0093t0.278 0.0486q0.12 0.0393 0.187 0.132 0.0671 0.0948 0.0671 0.261 0 0.224-0.176 0.396-0.173 0.173-0.446 0.266-0.271 0.0948-0.544 0.0948-0.352 0-0.488-0.155-0.136-0.153-0.136-0.324 0-0.194 0.118-0.312 0.12-0.118 0.303-0.227-0.245-0.134-0.241-0.356 0.109-0.0833 0.363-0.178zm0.247-0.123q0.167-0.0879 0.259-0.194 0.0948-0.106 0.0948-0.347 0-0.136-0.0393-0.261-0.0393-0.127-0.109-0.224-0.0694-0.0972-0.171-0.155-0.0995-0.0601-0.224-0.0601-0.19 0-0.319 0.146-0.127 0.143-0.127 0.365 0 0.312 0.187 0.47 0.187 0.157 0.449 0.261zm-0.393 0.777q-0.143 0.044-0.259 0.146-0.116 0.104-0.116 0.236 0 0.153 0.178 0.275 0.178 0.123 0.46 0.123 0.16 0 0.347-0.0486 0.187-0.0463 0.319-0.15 0.134-0.104 0.134-0.254 0-0.104-0.0717-0.197-0.074-0.0902-0.222-0.102-0.0324-0.0046-0.236-0.0023-0.201 0.0023-0.241 0.0023-0.206 0-0.294-0.0278z" style="font-feature-settings:normal;font-variant-caps:normal;font-variant-ligatures:normal;font-variant-numeric:normal"/>
   <path d="m80.5 15.5 0.0046-0.0671q0.116-0.0231 0.16-0.0463 0.044-0.0231 0.0763-0.109 0.0324-0.0856 0.0416-0.257 0.0116-0.171 0.0116-0.525 0-0.28-0.0301-0.372-0.0301-0.0925-0.15-0.0925-0.0717 0-0.146 0.0185l0.0093-0.074 0.597-0.347q0.0093 0.143 0.0093 0.393l0.247-0.141q0.0185-0.0116 0.0324-0.0208 0.0254-0.0139 0.0578-0.0324 0.0324-0.0208 0.111-0.0671 0.0786-0.0486 0.125-0.0786l0.0185 0.0093q0.0139 0.0139 0.0324 0.0231 0.0694 0.0324 0.109 0.074 0.0393 0.0416 0.0393 0.12 0 0.0902-0.074 0.148-0.074 0.0578-0.178 0.0694 0-0.0786-0.037-0.12-0.037-0.0416-0.104-0.0416-0.0694 0-0.164 0.0509-0.0948 0.0486-0.143 0.0925-0.0578 0.0509-0.0694 0.0856-0.0093 0.0324-0.0116 0.164-0.0139 0.391-0.0139 0.414 0 0.451 0.0463 0.557 0.0208 0.037 0.0463 0.0463 0.0254 0.0069 0.0879 0.0069l0.0601-0.0046 0.275-0.0046-0.0046 0.0948q-0.0116 0-0.146 0.0046-0.134 0.0046-0.18 0.0046z" style="font-feature-settings:normal;font-variant-caps:normal;font-variant-ligatures:normal;font-variant-numeric:normal"/>
   <path d="m82.5 14.1-0.285 0.127q-0.0185-0.074-0.0185-0.109 0-0.118 0.143-0.217 0.146-0.102 0.326-0.164 0.183-0.0624 0.254-0.0624 0.0624 0 0.155 0.0555 0.0925 0.0555 0.148 0.111 0.0486 0.0463 0.074 0.0925 0.0278 0.044 0.0486 0.141 0.0208 0.0972 0.0208 0.247 0 0.044-0.0116 0.31l-0.0093 0.173q-0.0093 0.125-0.0093 0.199 0 0.0948 0.0254 0.204 0.0231 0.111 0.104 0.111 0.0902 0 0.241-0.0671v0.0948l-0.34 0.136q-0.102 0.0347-0.116 0.0347-0.0532 0-0.106-0.0694-0.0509-0.0717-0.0833-0.169-0.428 0.238-0.657 0.238-0.141 0-0.213-0.081-0.0717-0.0833-0.0717-0.247 0-0.157 0.037-0.234 0.0393-0.0763 0.125-0.12 0.173-0.0879 0.368-0.13 0.194-0.044 0.407-0.074l0.0116-0.285v-0.0763q0-0.197-0.113-0.31-0.111-0.116-0.261-0.116-0.0717 0-0.146 0.0416-0.0717 0.0393-0.0717 0.113 0 0.037 0.0231 0.0995zm0.548 1.09q-0.0069-0.0763 0.0139-0.435-0.305-0.0208-0.49 0.074-0.185 0.0948-0.185 0.238 0 0.104 0.0555 0.197 0.0578 0.0925 0.157 0.0925 0.111 0 0.449-0.167z" style="font-feature-settings:normal;font-variant-caps:normal;font-variant-ligatures:normal;font-variant-numeric:normal"/>
   <path d="m83.7 14-0.0185-0.0648q0.111-0.0671 0.155-0.0856 0.0324 0 0.201-0.0972 0.171-0.0972 0.236-0.178 0.0185 0.0555 0.0509 0.326l0.199-0.0786q0.31-0.13 0.47-0.13 0.173 0 0.345 0.113 0.173 0.113 0.28 0.305 0.109 0.192 0.109 0.412 0 0.28-0.127 0.467-0.127 0.185-0.315 0.287-0.185 0.0995-0.359 0.139-0.171 0.0393-0.259 0.0393-0.143 0-0.342-0.0671 0 0.0416-0.0046 0.261-0.0046 0.22-0.0046 0.257v0.421q0 0.148 0.0116 0.21 0.0116 0.0624 0.0416 0.0786 0.0324 0.0185 0.109 0.0231l0.169 0.0093q0.0578 0 0.0578 0.044 0 0.0278-0.0185 0.0347-0.0162 0.0069-0.081 0.0069-0.287 0-0.359 0.0023-0.0717 0.0046-0.472 0.0301 0-0.0416-0.0046-0.0694 0.118-0.0093 0.157-0.0347 0.0393-0.0231 0.0624-0.0786 0.037-0.102 0.0486-0.409 0.0116-0.305 0.0116-0.638l0.0046-0.289q0-0.333-0.0046-0.687-0.0046-0.356-0.0185-0.435-0.0116-0.0463-0.037-0.0879-0.0231-0.044-0.0578-0.0694-0.0324-0.0278-0.0671-0.0278-0.0254 0-0.169 0.0601zm0.62-0.0046-0.0046 1.17 0.213 0.0717q0.243 0.081 0.338 0.081 0.113 0 0.252-0.0555 0.139-0.0578 0.243-0.192 0.106-0.134 0.106-0.349 0-0.236-0.109-0.435-0.109-0.201-0.271-0.315t-0.308-0.113q-0.074 0-0.46 0.136z" style="font-feature-settings:normal;font-variant-caps:normal;font-variant-ligatures:normal;font-variant-numeric:normal"/>
   <path d="m86 12.7v-0.0879q0.0509-0.0254 0.0671-0.0347l0.449-0.217 0.0763-0.0416 0.0763 0.037q-0.044 0.208-0.0624 0.481-0.0185 0.271-0.0278 0.689l-0.0139 0.47q0.273-0.118 0.442-0.173 0.171-0.0555 0.328-0.0555 0.222 0 0.324 0.136 0.102 0.134 0.125 0.331 0.0254 0.194 0.0254 0.513 0 0.0624-0.0023 0.116 0 0.0532-0.0023 0.15-0.0023 0.0948-0.0069 0.176-0.0023 0.0786-0.0023 0.0902 0 0.0995 0.0486 0.132 0.0486 0.0324 0.268 0.0324l-0.0046 0.0717h-0.15q-0.0347 0-0.287 0.0023-0.25 0.0023-0.257 0.0023-0.0069 0-0.102 0.0231-0.0231 0-0.0231-0.0324 0-0.0231 0.037-0.0324 0.0879-0.0208 0.13-0.074 0.044-0.0532 0.0578-0.18 0.0162-0.127 0.0162-0.419 0-0.46-0.074-0.657-0.074-0.197-0.338-0.197-0.136 0-0.301 0.0509t-0.243 0.0925q0 0.0648-0.0093 0.217l-0.0208 0.557q0 0.0532-0.0023 0.0972 0 0.044-0.0023 0.0972 0 0.224 0.0301 0.289 0.0116 0.0393 0.0555 0.0555 0.044 0.0139 0.234 0.0301v0.081q-0.0763-0.0093-0.324-0.0093-0.257 0-0.553 0.0231l0.0046-0.0763q0.148-0.0301 0.194-0.0578 0.0486-0.0301 0.0648-0.111 0.0185-0.081 0.0254-0.303 0.0069-0.363 0.0185-0.622l0.0093-0.648q0.0046-0.0995 0.0046-0.442 0-0.312-0.0278-0.46-0.0254-0.15-0.13-0.15-0.0162 0-0.146 0.037z" style="font-feature-settings:normal;font-variant-caps:normal;font-variant-ligatures:normal;font-variant-numeric:normal"/>
   <path d="m88 13.9v-0.0717q0.113 0.0139 0.317 0.0139 0.238 0 0.474-0.0278l-0.0069 0.0856q-0.0948 0.0185-0.136 0.044-0.0416 0.0231-0.0416 0.0925 0 0.111 0.0995 0.481t0.236 0.736l0.153-0.273q0.0995-0.171 0.236-0.476 0.136-0.305 0.136-0.419 0-0.162-0.322-0.201l0.0324-0.074q0.275 0.0278 0.479 0.0278 0.15 0 0.229-0.0139l-0.0046 0.0763q-0.0624 0.0093-0.113 0.0486-0.0486 0.037-0.0925 0.106-0.0416 0.0671-0.0925 0.171l-0.252 0.52q-0.0046 0.0116-0.176 0.342-0.247 0.486-0.372 0.773-0.123 0.287-0.18 0.476-0.0555 0.19-0.13 0.502h-0.493v-0.0786q0.153-0.0347 0.245-0.109 0.0925-0.0717 0.167-0.199 0.074-0.125 0.185-0.379l0.18-0.402q-0.132-0.497-0.243-0.874-0.111-0.377-0.21-0.613-0.0463-0.12-0.0948-0.178-0.0463-0.0601-0.0879-0.074-0.0393-0.0162-0.12-0.0324z" style="font-feature-settings:normal;font-variant-caps:normal;font-variant-ligatures:normal;font-variant-numeric:normal"/>
  </g>
 </g>
 <text x="65.67231" y="4.6434283" fill="#000000" font-family="sans-serif" font-size="10.6px" letter-spacing="0px" stroke-width=".265" word-spacing="0px" style="line-height:1.25" xml:space="preserve"><tspan x="65.67231" y="14.299354" stroke-width=".265"/></text>
</svg>
